<svg width="1022" height="159" viewBox="0 0 1022 159" fill="none" xmlns="http://www.w3.org/2000/svg">
<path d="M0.843751 17.4H32.0438V156H0.843751V17.4ZM166.925 17.4V44H125.125V156H93.925V44H52.125V17.4H166.925ZM263.37 156C261.904 151.2 260.237 146.267 258.37 141.2C256.637 136.133 254.904 131.067 253.17 126H199.17C197.437 131.067 195.637 136.133 193.77 141.2C192.037 146.267 190.437 151.2 188.97 156H156.57C161.77 141.067 166.704 127.267 171.37 114.6C176.037 101.933 180.57 90 184.97 78.8C189.504 67.6 193.904 57 198.17 47C202.57 36.8667 207.104 27 211.77 17.4H241.57C246.104 27 250.57 36.8667 254.97 47C259.37 57 263.77 67.6 268.17 78.8C272.704 90 277.304 101.933 281.97 114.6C286.637 127.267 291.57 141.067 296.77 156H263.37ZM225.97 48.8C225.304 50.8 224.304 53.5333 222.97 57C221.637 60.4667 220.104 64.4667 218.37 69C216.637 73.5333 214.704 78.5333 212.57 84C210.57 89.4667 208.504 95.2 206.37 101.2H245.77C243.637 95.2 241.57 89.4667 239.57 84C237.57 78.5333 235.637 73.5333 233.77 69C232.037 64.4667 230.504 60.4667 229.17 57C227.837 53.5333 226.77 50.8 225.97 48.8ZM402.511 152.4C397.444 153.867 390.911 155.2 382.911 156.4C374.911 157.733 366.511 158.4 357.711 158.4C348.778 158.4 341.311 157.2 335.311 154.8C329.444 152.4 324.778 149.067 321.311 144.8C317.844 140.4 315.378 135.2 313.911 129.2C312.444 123.2 311.711 116.6 311.711 109.4V50.8H341.511V105.8C341.511 115.4 342.778 122.333 345.311 126.6C347.844 130.867 352.578 133 359.511 133C361.644 133 363.911 132.933 366.311 132.8C368.711 132.533 370.844 132.267 372.711 132V50.8H402.511V152.4ZM455.884 102.6C455.884 111.8 457.951 119.2 462.084 124.8C466.218 130.4 472.351 133.2 480.484 133.2C483.151 133.2 485.618 133.133 487.884 133C490.151 132.733 492.018 132.467 493.484 132.2V78C491.618 76.8 489.151 75.8 486.084 75C483.151 74.2 480.151 73.8 477.084 73.8C462.951 73.8 455.884 83.4 455.884 102.6ZM523.284 152.6C520.618 153.4 517.551 154.2 514.084 155C510.618 155.667 506.951 156.267 503.084 156.8C499.351 157.333 495.484 157.733 491.484 158C487.618 158.4 483.884 158.6 480.284 158.6C471.618 158.6 463.884 157.333 457.084 154.8C450.284 152.267 444.551 148.667 439.884 144C435.218 139.2 431.618 133.467 429.084 126.8C426.684 120 425.484 112.4 425.484 104C425.484 95.4667 426.551 87.8 428.684 81C430.818 74.0667 433.884 68.2 437.884 63.4C441.884 58.6 446.751 54.9333 452.484 52.4C458.351 49.8667 465.018 48.6 472.484 48.6C476.618 48.6 480.284 49 483.484 49.8C486.818 50.6 490.151 51.7333 493.484 53.2V5.59999L523.284 0.799995V152.6ZM580.988 156H551.188V50.8H580.988V156ZM583.788 20.4C583.788 25.8667 581.988 30.2 578.388 33.4C574.921 36.4667 570.788 38 565.988 38C561.188 38 556.988 36.4667 553.388 33.4C549.921 30.2 548.188 25.8667 548.188 20.4C548.188 14.9333 549.921 10.6667 553.388 7.59999C556.988 4.39999 561.188 2.79999 565.988 2.79999C570.788 2.79999 574.921 4.39999 578.388 7.59999C581.988 10.6667 583.788 14.9333 583.788 20.4ZM608 24.6L637.8 19.8V50.8H673.6V75.6H637.8V112.6C637.8 118.867 638.867 123.867 641 127.6C643.267 131.333 647.733 133.2 654.4 133.2C657.6 133.2 660.867 132.933 664.2 132.4C667.667 131.733 670.8 130.867 673.6 129.8L677.8 153C674.2 154.467 670.2 155.733 665.8 156.8C661.4 157.867 656 158.4 649.6 158.4C641.467 158.4 634.733 157.333 629.4 155.2C624.067 152.933 619.8 149.867 616.6 146C613.4 142 611.133 137.2 609.8 131.6C608.6 126 608 119.8 608 113V24.6ZM792.467 129.2V156H699.867V17.4H731.067V129.2H792.467ZM853.106 135.2C856.04 135.2 858.84 135.133 861.506 135C864.173 134.867 866.306 134.667 867.906 134.4V111.8C866.706 111.533 864.906 111.267 862.506 111C860.106 110.733 857.906 110.6 855.906 110.6C853.106 110.6 850.44 110.8 847.906 111.2C845.506 111.467 843.373 112.067 841.506 113C839.64 113.933 838.173 115.2 837.106 116.8C836.04 118.4 835.506 120.4 835.506 122.8C835.506 127.467 837.04 130.733 840.106 132.6C843.306 134.333 847.64 135.2 853.106 135.2ZM850.706 48C859.506 48 866.84 49 872.706 51C878.573 53 883.24 55.8667 886.706 59.6C890.306 63.3333 892.84 67.8667 894.306 73.2C895.773 78.5333 896.506 84.4667 896.506 91V153C892.24 153.933 886.306 155 878.706 156.2C871.106 157.533 861.906 158.2 851.106 158.2C844.306 158.2 838.106 157.6 832.506 156.4C827.04 155.2 822.306 153.267 818.306 150.6C814.306 147.8 811.24 144.2 809.106 139.8C806.973 135.4 805.906 130 805.906 123.6C805.906 117.467 807.106 112.267 809.506 108C812.04 103.733 815.373 100.333 819.506 97.8C823.64 95.2667 828.373 93.4667 833.706 92.4C839.04 91.2 844.573 90.6 850.306 90.6C854.173 90.6 857.573 90.8 860.506 91.2C863.573 91.4667 866.04 91.8667 867.906 92.4V89.6C867.906 84.5333 866.373 80.4667 863.306 77.4C860.24 74.3333 854.906 72.8 847.306 72.8C842.24 72.8 837.24 73.2 832.306 74C827.373 74.6667 823.106 75.6667 819.506 77L815.706 53C817.44 52.4667 819.573 51.9333 822.106 51.4C824.773 50.7333 827.64 50.2 830.706 49.8C833.773 49.2667 836.973 48.8667 840.306 48.6C843.773 48.2 847.24 48 850.706 48ZM990.853 102.6C990.853 83.4 983.786 73.8 969.653 73.8C966.586 73.8 963.52 74.2 960.453 75C957.52 75.8 955.12 76.8 953.253 78V132.2C954.72 132.467 956.586 132.733 958.853 133C961.12 133.133 963.586 133.2 966.253 133.2C974.386 133.2 980.52 130.4 984.653 124.8C988.786 119.2 990.853 111.8 990.853 102.6ZM1021.25 103.4C1021.25 111.8 1019.99 119.4 1017.45 126.2C1015.05 133 1011.52 138.8 1006.85 143.6C1002.19 148.4 996.453 152.133 989.653 154.8C982.853 157.333 975.12 158.6 966.453 158.6C962.853 158.6 959.053 158.4 955.053 158C951.186 157.733 947.32 157.333 943.453 156.8C939.72 156.267 936.12 155.667 932.653 155C929.186 154.2 926.12 153.4 923.453 152.6V5.59999L953.253 0.799995V53.2C956.586 51.7333 960.053 50.6 963.653 49.8C967.253 49 971.12 48.6 975.253 48.6C982.72 48.6 989.32 49.9333 995.053 52.6C1000.79 55.1333 1005.59 58.8 1009.45 63.6C1013.32 68.4 1016.25 74.2 1018.25 81C1020.25 87.6667 1021.25 95.1333 1021.25 103.4Z" fill="#0079C1"/>
</svg>
