<svg width="302" height="302" viewBox="0 0 302 302" fill="none" xmlns="http://www.w3.org/2000/svg">
<mask id="mask0_914_3" style="mask-type:luminance" maskUnits="userSpaceOnUse" x="7" y="41" width="288" height="179">
<path d="M7.27948 41.8774H294.752V219.051H7.27948V41.8774Z" fill="white"/>
</mask>
<g mask="url(#mask0_914_3)">
<path d="M283.219 42.5381H18.8467C12.5959 42.5381 7.50281 47.6501 7.50281 53.9889V208.239C47.9456 226.626 183.654 217.135 209.509 208.239C245.583 223.059 271.46 218.315 294.563 208.239V53.9889C294.563 47.6501 289.47 42.5381 283.219 42.5381Z" fill="#E15C63"/>
</g>
<mask id="mask1_914_3" style="mask-type:luminance" maskUnits="userSpaceOnUse" x="7" y="199" width="288" height="45">
<path d="M7.27948 199.723H294.752V243.211H7.27948V199.723Z" fill="white"/>
</mask>
<g mask="url(#mask1_914_3)">
<path d="M294.563 208.238V227.117C294.563 233.455 289.47 238.567 283.219 238.567H183.443C161.907 244.642 140.301 244.642 118.623 238.567H18.8467C12.5959 238.567 7.50281 233.455 7.50281 227.117V208.238H35.2837C71.6684 197.458 106.688 196.432 139.92 208.238C149.317 202.353 159.934 203.35 171.243 208.238C182.628 203.089 195.727 204.378 209.509 208.238H294.563Z" fill="#E4E4E4"/>
</g>
<mask id="mask2_914_3" style="mask-type:luminance" maskUnits="userSpaceOnUse" x="157" y="18" width="87" height="106">
<path d="M157.04 18.9568H243.211V123.216H157.04V18.9568Z" fill="white"/>
</mask>
<g mask="url(#mask2_914_3)">
<path d="M164.389 107.842C155.615 83.3678 155.502 59.4941 163.697 42.56C166.311 37.0768 169.806 32.3361 174.182 28.5422C176.311 26.6925 185.038 19.4507 197.332 19.1959C213.652 18.8499 226.849 31.018 234.072 42.538C235.044 44.133 235.922 45.6838 236.686 47.2096C248.886 71.7313 241.502 107.566 222.797 114.873C221.432 115.405 220.042 115.776 218.654 116.009C215.043 116.585 211.431 116.217 208.05 115.383C207.587 115.292 207.147 115.15 206.706 115.037C204.948 114.527 203.073 115.361 202.286 117.025C201.544 118.598 200.827 120.171 200.088 121.744C184.692 124.647 171.791 122.172 164.389 107.842Z" fill="#655F68"/>
</g>
<mask id="mask3_914_3" style="mask-type:luminance" maskUnits="userSpaceOnUse" x="92" y="254" width="118" height="29">
<path d="M92.6133 254.485H209.387V282.905H92.6133V254.485Z" fill="white"/>
</mask>
<g mask="url(#mask3_914_3)">
<path d="M208.909 282.911H93.1576C93.1576 277.755 95.2401 273.08 98.5747 269.705C101.931 266.326 106.562 264.244 111.677 264.244H118.623L151.296 254.567L183.443 264.244H190.386C200.619 264.244 208.909 272.596 208.909 282.911Z" fill="#655F68"/>
</g>
<path d="M139.92 208.238H35.2837C34.3336 199.402 32.1819 169.538 51.4879 142.887C74.6129 110.963 111.561 107.031 125.566 105.552C139.92 104.023 153.023 105.275 164.389 107.842C166.22 108.258 167.978 108.698 169.715 109.16C173.093 110.085 176.311 111.105 179.322 112.19C182.446 113.3 185.365 114.505 188.074 115.685C192.77 117.764 196.8 119.872 200.088 121.744C202.818 123.295 205.042 124.682 206.706 125.792L231.385 155.797C240.194 156.096 245.529 160.416 247.476 168.658C253.007 173.748 255.322 177.309 254.372 179.278C253.331 181.427 248.471 181.707 239.744 180.108C236.803 179.577 233.978 181.496 233.33 184.434C232.081 190.125 230.297 193.201 227.96 193.689C224.858 194.337 220.784 190.288 215.76 181.543C214.115 182.606 212.01 183.833 209.509 184.966C200.229 191.802 191.028 195.687 182.147 187.721H182.122L139.92 208.238Z" fill="#41B0FF"/>
<path d="M118.623 238.567H183.443V264.244H118.623V238.567Z" fill="#CDC7B9"/>
<path d="M151.031 217.563C154.228 217.563 156.82 220.177 156.82 223.392C156.82 226.629 154.228 229.243 151.031 229.243C147.838 229.243 145.246 226.629 145.246 223.392C145.246 220.177 147.838 217.563 151.031 217.563Z" fill="#6FCEAE"/>
<path d="M248.609 140.946C253.17 143.698 256.225 148.14 256.665 152.834C257.222 158.827 253.516 165.071 247.476 168.657C245.624 166.924 243.425 165.049 240.854 163.014L241.015 162.806L248.609 140.946Z" fill="#D6EAE8"/>
<path d="M235.182 138.215C240.254 137.52 244.928 138.678 248.609 140.946C248.772 143.466 248.725 147.791 246.989 152.765C245.274 157.625 242.682 160.956 241.015 162.806L240.854 163.014C238.099 160.793 234.95 158.386 231.385 155.797L235.182 138.215Z" fill="#5D5560"/>
<path d="M201.777 133.566V133.544L204.347 128.083C204.857 127.019 205.712 126.233 206.706 125.792H206.732C207.911 125.261 209.302 125.239 210.503 125.814C212.844 126.95 213.838 129.98 212.495 132.386C213.376 130.511 215.156 129.401 216.962 129.401C217.588 129.401 218.214 129.539 218.793 129.819C220.391 130.606 221.316 132.27 221.316 134.05C221.316 134.837 221.13 135.623 220.784 136.388C221.872 134.075 224.603 133.103 226.893 134.214C228.539 135 229.511 136.664 229.511 138.401C229.511 139.049 229.372 139.719 229.07 140.367C230.159 138.077 232.889 137.105 235.183 138.215C236.825 139.002 237.797 140.666 237.797 142.402C237.797 143.05 237.658 143.721 237.359 144.369L232.751 154.108C232.427 154.8 231.964 155.379 231.385 155.797C230.067 156.813 228.237 157.068 226.638 156.282C224.996 155.473 224.024 153.831 224.024 152.095C224.024 151.425 224.163 150.755 224.465 150.107C223.376 152.419 220.646 153.391 218.352 152.28C216.823 151.563 215.899 150.081 215.76 148.508L215.735 148.486C203.045 151.459 197.171 147.694 201.777 133.566Z" fill="#FEC4B9"/>
<path d="M167.236 159.22C168.673 154.523 171.357 147.678 176.497 140.553C177.192 139.581 177.909 138.631 178.649 137.753C181.681 133.981 184.808 131.021 187.539 128.778C189.206 127.391 191.521 127.111 193.466 128.105C195.41 129.102 196.476 131.068 196.476 133.056C196.476 134.283 196.083 135.532 195.224 136.573C193.953 138.099 192.701 139.628 191.452 141.132L191.474 141.154C193.742 138.587 196.014 136.479 198.096 134.793C199.138 133.912 200.459 133.497 201.777 133.566C202.541 133.566 203.306 133.751 204.023 134.12C205.967 135.117 207.03 137.083 207.03 139.071C207.03 140.298 206.637 141.547 205.782 142.588C205.181 143.305 204.577 144.045 203.998 144.762C205.111 143.721 206.175 142.774 207.194 141.918C208.654 140.713 210.642 140.182 212.448 140.782C215.829 141.871 217.173 145.596 215.735 148.487C215.575 148.88 215.32 149.251 215.043 149.597C211.985 153.275 208.767 156.792 205.366 160.076C203.444 162.02 201.475 163.848 199.462 165.606L188.074 175.553C177.954 173.899 170.734 168.783 167.236 159.22Z" fill="#FFD7D2"/>
<path d="M177.007 197.643C187.696 192.597 198.537 192.729 209.509 197.643V208.238H171.243C169.34 203.539 171.778 200.166 177.007 197.643Z" fill="#D6EAE8"/>
<path d="M182.122 187.721H182.147C186.29 188.621 193.884 189.662 202.796 187.328C205.297 186.68 207.54 185.846 209.509 184.966V197.643H177.007C175.302 193.255 177.01 189.949 182.122 187.721Z" fill="#5D5560"/>
<path d="M188.074 175.553C186.196 179.555 184.207 183.603 182.122 187.721C181.823 188.344 181.521 188.97 181.197 189.593C168.664 189.275 159.94 183.55 155.2 172.175C159.321 167.292 163.395 162.992 167.236 159.22C170.341 160.585 174.251 162.668 178.325 165.814C182.726 169.189 185.897 172.728 188.074 175.553Z" fill="#655F68"/>
<path d="M181.197 189.593C180.41 191.122 179.624 192.67 178.812 194.221C178.211 195.378 177.607 196.511 177.007 197.643C176.242 199.078 175.503 200.465 174.738 201.855C162.224 200.827 152.988 194.328 146.634 183.025C147.304 182.1 147.999 181.175 148.716 180.225C150.871 177.381 153.023 174.698 155.2 172.175L181.197 189.593Z" fill="#E7F2F1"/>
<path d="M146.634 183.025L174.738 201.856C173.581 204.029 172.423 206.156 171.243 208.239H139.92C137.769 201.714 138.716 194.475 142.676 188.646C143.925 186.793 145.246 184.922 146.634 183.025Z" fill="#655F68"/>
<path d="M118.623 238.567H183.443V245.646H118.623V238.567Z" fill="#BCB7AC"/>
<path d="M239.039 180.099C247.766 181.697 252.629 181.417 253.671 179.269C254.617 177.302 252.305 173.738 246.772 168.648C252.812 165.062 256.518 158.817 255.961 152.825C255.545 148.499 252.928 144.381 248.949 141.607C269.412 116.6 282.515 84.2832 282.515 42.5286C288.765 42.5286 293.859 47.6405 293.859 53.9794V208.229H208.805V184.959C211.306 183.824 213.413 182.597 215.055 181.534C220.079 190.279 224.153 194.328 227.255 193.68C229.592 193.192 231.376 190.115 232.625 184.425C233.276 181.489 236.098 179.567 239.039 180.099Z" fill="#D14B62"/>
<path d="M189.301 188.69C186.381 188.53 183.927 188.114 182.147 187.721H182.122C181.823 188.344 181.521 188.97 181.197 189.593C180.502 190.911 179.832 192.276 179.114 193.62C179.02 193.827 178.929 194.013 178.812 194.22C178.211 195.378 177.607 196.511 177.007 197.643H186.476C188.398 194.752 190.433 191.628 192.17 188.759C191.175 188.759 190.203 188.737 189.301 188.69Z" fill="#524956"/>
<path d="M174.738 201.856C175.503 200.465 176.242 199.078 177.007 197.643H186.476C182.631 203.403 179.184 208.238 179.184 208.238H171.243C172.423 206.156 173.581 204.029 174.738 201.856Z" fill="#C3DDDA"/>
<mask id="mask4_914_3" style="mask-type:luminance" maskUnits="userSpaceOnUse" x="7" y="207" width="288" height="33">
<path d="M7.27948 207.776H294.752V239.184H7.27948V207.776Z" fill="white"/>
</mask>
<g mask="url(#mask4_914_3)">
<path d="M151.031 229.243C154.228 229.243 156.82 226.629 156.82 223.392C156.82 220.177 154.228 217.563 151.031 217.563C147.838 217.563 145.246 220.177 145.246 223.392C145.246 226.629 147.838 229.243 151.031 229.243ZM294.563 208.238V227.116C294.563 233.455 289.47 238.567 283.219 238.567H18.8467C12.5959 238.567 7.50281 233.455 7.50281 227.116C7.50281 227.116 73.1312 228.781 140.361 208.238H294.563Z" fill="#D1D1D1"/>
</g>
<path d="M208.396 166.924C207.977 166.009 207.562 165.078 207.137 164.115C207.103 164.043 207.071 163.97 207.04 163.901C206.496 162.671 205.948 161.406 205.385 160.101L205.363 160.079C203.441 162.023 201.475 163.848 199.458 165.606L188.07 175.553C186.196 179.555 184.204 183.603 182.122 187.721H182.144C183.927 188.115 186.381 188.533 189.297 188.693C190.2 188.741 191.172 188.763 192.166 188.763C192.654 187.976 193.116 187.19 193.532 186.45C194.645 184.553 195.548 182.864 196.102 181.546C197.451 178.4 199.94 175.399 202.371 172.967C204.413 177.46 207.348 182.666 210.595 184.459C212.633 183.49 214.344 182.449 215.757 181.546C213.492 177.623 211.041 172.744 208.396 166.924Z" fill="#E0AC69"/>
<path d="M202.994 145.92C202.007 145.117 200.547 145.259 199.738 146.253C198.864 147.323 198.584 147.656 198.291 148.005C198.005 148.348 197.706 148.71 196.835 149.776C196.023 150.764 196.171 152.224 197.162 153.029C197.593 153.378 198.112 153.551 198.625 153.551C199.298 153.551 199.962 153.262 200.421 152.702L201.852 150.969C202.148 150.613 202.431 150.273 203.325 149.175C204.133 148.185 203.988 146.728 202.994 145.92Z" fill="#FEC4B9"/>
<path d="M188.074 141.607L187.533 142.185C187.133 142.607 187.13 142.607 186.712 143.167L186.23 143.799C185.453 144.815 185.651 146.269 186.667 147.04C187.086 147.36 187.58 147.515 188.067 147.515C188.766 147.515 189.458 147.2 189.911 146.602L190.408 145.948C190.66 145.614 190.656 145.614 190.895 145.36L191.468 144.749C192.336 143.815 192.283 142.349 191.342 141.481C190.411 140.616 188.945 140.666 188.074 141.607Z" fill="#FEC4B9"/>
<path d="M182.971 124.103C179.419 122.713 175.714 121.734 171.945 121.19C165.034 120.186 158.088 120.636 151.293 122.524C150.059 122.867 149.339 124.141 149.682 125.371C150.025 126.601 151.299 127.328 152.532 126.978C158.704 125.264 165.012 124.855 171.281 125.77C174.701 126.261 178.064 127.151 181.282 128.413C181.559 128.52 181.845 128.57 182.125 128.57C183.05 128.57 183.924 128.013 184.283 127.101C184.749 125.912 184.163 124.569 182.971 124.103Z" fill="#E0AC69"/>
<path d="M173.046 134.686C170.514 134.516 167.94 134.544 165.405 134.78C159.805 135.299 154.184 136.844 149.153 139.253C147.999 139.807 147.514 141.188 148.065 142.339C148.461 143.17 149.292 143.654 150.154 143.654C150.487 143.654 150.827 143.582 151.154 143.428C154.319 141.908 159.437 139.977 165.826 139.389C168.12 139.178 170.441 139.146 172.731 139.304C174.031 139.426 175.11 138.426 175.195 137.152C175.286 135.875 174.32 134.771 173.046 134.686Z" fill="#E0AC69"/>
<path d="M226.937 69.8721C226.148 59.1543 223.886 48.5528 220.205 38.3729C219.771 37.1712 218.447 36.5483 217.242 36.9824C216.04 37.4165 215.417 38.7441 215.851 39.9458C219.387 49.7293 221.564 59.9124 222.319 70.2119C223.269 83.2104 221.954 96.2531 218.409 108.972C218.066 110.205 218.786 111.479 220.02 111.822C220.224 111.878 220.435 111.907 220.642 111.907C221.655 111.907 222.587 111.237 222.87 110.211C226.557 96.9798 227.925 83.4055 226.937 69.8721Z" fill="#5D5560"/>
<path d="M208.544 38.5491C208.157 37.3285 206.848 36.6553 205.637 37.0485C204.419 37.4323 203.746 38.7378 204.133 39.9521C207.216 49.6161 209.192 59.5664 210.003 69.5324C211.092 83.0375 210.098 96.6117 207.043 109.878C206.757 111.12 207.534 112.363 208.78 112.652C208.956 112.69 209.129 112.709 209.302 112.709C210.356 112.709 211.309 111.985 211.554 110.913C214.716 97.1811 215.744 83.135 214.618 69.158C213.778 58.846 211.733 48.5465 208.544 38.5491Z" fill="#5D5560"/>
<path d="M194.397 32.5813C193.129 32.7323 192.22 33.8837 192.371 35.1515C193.997 48.7918 194.227 62.6052 193.057 76.2078C192.119 87.1867 190.26 98.1751 187.529 108.868C187.215 110.104 187.964 111.366 189.203 111.68C189.395 111.727 189.587 111.753 189.776 111.753C190.807 111.753 191.751 111.054 192.015 110.01C194.812 99.0717 196.712 87.8316 197.672 76.6041C198.87 62.687 198.634 48.559 196.97 34.6073C196.819 33.3363 195.655 32.4398 194.397 32.5813Z" fill="#5D5560"/>
<path d="M186.592 36.1803C185.337 35.9161 184.11 36.7057 183.843 37.9546C181.754 47.6249 180.121 57.3738 178.992 66.9277C177.516 79.4922 176.805 92.2674 176.878 104.901C176.884 106.175 177.919 107.201 179.193 107.201C179.196 107.201 179.202 107.201 179.206 107.201C180.483 107.194 181.515 106.15 181.508 104.873C181.436 92.431 182.134 79.8445 183.588 67.4688C184.701 58.0596 186.312 48.4554 188.366 38.9298C188.637 37.6809 187.844 36.4509 186.592 36.1803Z" fill="#5D5560"/>
<path d="M174.776 42.1478C173.571 41.7074 172.244 42.3208 171.803 43.5194C168.626 52.1358 166.465 61.1297 165.38 70.2558C164.09 81.1404 164.364 92.22 166.194 103.193C166.386 104.325 167.365 105.124 168.475 105.124C168.601 105.124 168.73 105.118 168.859 105.093C170.12 104.882 170.973 103.693 170.762 102.431C169.007 91.8897 168.739 81.2473 169.979 70.8C171.023 62.0357 173.096 53.3941 176.151 45.1174C176.588 43.9189 175.975 42.5882 174.776 42.1478Z" fill="#5D5560"/>
</svg>
