<svg width="1349" height="265" viewBox="0 0 1349 265" fill="none" xmlns="http://www.w3.org/2000/svg">
<path d="M327.844 62.4H359.044V201H327.844V62.4ZM493.925 62.4V89H452.125V201H420.925V89H379.125V62.4H493.925ZM590.37 201C588.904 196.2 587.237 191.267 585.37 186.2C583.637 181.133 581.904 176.067 580.17 171H526.17C524.437 176.067 522.637 181.133 520.77 186.2C519.037 191.267 517.437 196.2 515.97 201H483.57C488.77 186.067 493.704 172.267 498.37 159.6C503.037 146.933 507.57 135 511.97 123.8C516.504 112.6 520.904 102 525.17 92C529.57 81.8667 534.104 72 538.77 62.4H568.57C573.104 72 577.57 81.8667 581.97 92C586.37 102 590.77 112.6 595.17 123.8C599.704 135 604.304 146.933 608.97 159.6C613.637 172.267 618.57 186.067 623.77 201H590.37ZM552.97 93.8C552.304 95.8 551.304 98.5333 549.97 102C548.637 105.467 547.104 109.467 545.37 114C543.637 118.533 541.704 123.533 539.57 129C537.57 134.467 535.504 140.2 533.37 146.2H572.77C570.637 140.2 568.57 134.467 566.57 129C564.57 123.533 562.637 118.533 560.77 114C559.037 109.467 557.504 105.467 556.17 102C554.837 98.5333 553.77 95.8 552.97 93.8ZM729.511 197.4C724.444 198.867 717.911 200.2 709.911 201.4C701.911 202.733 693.511 203.4 684.711 203.4C675.778 203.4 668.311 202.2 662.311 199.8C656.444 197.4 651.778 194.067 648.311 189.8C644.844 185.4 642.378 180.2 640.911 174.2C639.444 168.2 638.711 161.6 638.711 154.4V95.8H668.511V150.8C668.511 160.4 669.778 167.333 672.311 171.6C674.844 175.867 679.578 178 686.511 178C688.644 178 690.911 177.933 693.311 177.8C695.711 177.533 697.844 177.267 699.711 177V95.8H729.511V197.4ZM782.884 147.6C782.884 156.8 784.951 164.2 789.084 169.8C793.218 175.4 799.351 178.2 807.484 178.2C810.151 178.2 812.618 178.133 814.884 178C817.151 177.733 819.018 177.467 820.484 177.2V123C818.618 121.8 816.151 120.8 813.084 120C810.151 119.2 807.151 118.8 804.084 118.8C789.951 118.8 782.884 128.4 782.884 147.6ZM850.284 197.6C847.618 198.4 844.551 199.2 841.084 200C837.618 200.667 833.951 201.267 830.084 201.8C826.351 202.333 822.484 202.733 818.484 203C814.618 203.4 810.884 203.6 807.284 203.6C798.618 203.6 790.884 202.333 784.084 199.8C777.284 197.267 771.551 193.667 766.884 189C762.218 184.2 758.618 178.467 756.084 171.8C753.684 165 752.484 157.4 752.484 149C752.484 140.467 753.551 132.8 755.684 126C757.818 119.067 760.884 113.2 764.884 108.4C768.884 103.6 773.751 99.9333 779.484 97.4C785.351 94.8667 792.018 93.6 799.484 93.6C803.618 93.6 807.284 94 810.484 94.8C813.818 95.6 817.151 96.7333 820.484 98.2V50.6L850.284 45.8V197.6ZM907.988 201H878.188V95.8H907.988V201ZM910.788 65.4C910.788 70.8667 908.988 75.2 905.388 78.4C901.921 81.4667 897.788 83 892.988 83C888.188 83 883.988 81.4667 880.388 78.4C876.921 75.2 875.188 70.8667 875.188 65.4C875.188 59.9333 876.921 55.6667 880.388 52.6C883.988 49.4 888.188 47.8 892.988 47.8C897.788 47.8 901.921 49.4 905.388 52.6C908.988 55.6667 910.788 59.9333 910.788 65.4ZM935 69.6L964.8 64.8V95.8H1000.6V120.6H964.8V157.6C964.8 163.867 965.867 168.867 968 172.6C970.267 176.333 974.733 178.2 981.4 178.2C984.6 178.2 987.867 177.933 991.2 177.4C994.667 176.733 997.8 175.867 1000.6 174.8L1004.8 198C1001.2 199.467 997.2 200.733 992.8 201.8C988.4 202.867 983 203.4 976.6 203.4C968.467 203.4 961.733 202.333 956.4 200.2C951.067 197.933 946.8 194.867 943.6 191C940.4 187 938.133 182.2 936.8 176.6C935.6 171 935 164.8 935 158V69.6ZM1119.47 174.2V201H1026.87V62.4H1058.07V174.2H1119.47ZM1180.11 180.2C1183.04 180.2 1185.84 180.133 1188.51 180C1191.17 179.867 1193.31 179.667 1194.91 179.4V156.8C1193.71 156.533 1191.91 156.267 1189.51 156C1187.11 155.733 1184.91 155.6 1182.91 155.6C1180.11 155.6 1177.44 155.8 1174.91 156.2C1172.51 156.467 1170.37 157.067 1168.51 158C1166.64 158.933 1165.17 160.2 1164.11 161.8C1163.04 163.4 1162.51 165.4 1162.51 167.8C1162.51 172.467 1164.04 175.733 1167.11 177.6C1170.31 179.333 1174.64 180.2 1180.11 180.2ZM1177.71 93C1186.51 93 1193.84 94 1199.71 96C1205.57 98 1210.24 100.867 1213.71 104.6C1217.31 108.333 1219.84 112.867 1221.31 118.2C1222.77 123.533 1223.51 129.467 1223.51 136V198C1219.24 198.933 1213.31 200 1205.71 201.2C1198.11 202.533 1188.91 203.2 1178.11 203.2C1171.31 203.2 1165.11 202.6 1159.51 201.4C1154.04 200.2 1149.31 198.267 1145.31 195.6C1141.31 192.8 1138.24 189.2 1136.11 184.8C1133.97 180.4 1132.91 175 1132.91 168.6C1132.91 162.467 1134.11 157.267 1136.51 153C1139.04 148.733 1142.37 145.333 1146.51 142.8C1150.64 140.267 1155.37 138.467 1160.71 137.4C1166.04 136.2 1171.57 135.6 1177.31 135.6C1181.17 135.6 1184.57 135.8 1187.51 136.2C1190.57 136.467 1193.04 136.867 1194.91 137.4V134.6C1194.91 129.533 1193.37 125.467 1190.31 122.4C1187.24 119.333 1181.91 117.8 1174.31 117.8C1169.24 117.8 1164.24 118.2 1159.31 119C1154.37 119.667 1150.11 120.667 1146.51 122L1142.71 98C1144.44 97.4667 1146.57 96.9333 1149.11 96.4C1151.77 95.7333 1154.64 95.2 1157.71 94.8C1160.77 94.2667 1163.97 93.8667 1167.31 93.6C1170.77 93.2 1174.24 93 1177.71 93ZM1317.85 147.6C1317.85 128.4 1310.79 118.8 1296.65 118.8C1293.59 118.8 1290.52 119.2 1287.45 120C1284.52 120.8 1282.12 121.8 1280.25 123V177.2C1281.72 177.467 1283.59 177.733 1285.85 178C1288.12 178.133 1290.59 178.2 1293.25 178.2C1301.39 178.2 1307.52 175.4 1311.65 169.8C1315.79 164.2 1317.85 156.8 1317.85 147.6ZM1348.25 148.4C1348.25 156.8 1346.99 164.4 1344.45 171.2C1342.05 178 1338.52 183.8 1333.85 188.6C1329.19 193.4 1323.45 197.133 1316.65 199.8C1309.85 202.333 1302.12 203.6 1293.45 203.6C1289.85 203.6 1286.05 203.4 1282.05 203C1278.19 202.733 1274.32 202.333 1270.45 201.8C1266.72 201.267 1263.12 200.667 1259.65 200C1256.19 199.2 1253.12 198.4 1250.45 197.6V50.6L1280.25 45.8V98.2C1283.59 96.7333 1287.05 95.6 1290.65 94.8C1294.25 94 1298.12 93.6 1302.25 93.6C1309.72 93.6 1316.32 94.9333 1322.05 97.6C1327.79 100.133 1332.59 103.8 1336.45 108.6C1340.32 113.4 1343.25 119.2 1345.25 126C1347.25 132.667 1348.25 140.133 1348.25 148.4Z" fill="#4A4A4A"/>
<mask id="mask0_0_1" style="mask-type:luminance" maskUnits="userSpaceOnUse" x="0" y="23" width="288" height="179">
<path d="M0.27948 23.8774H287.752V201.051H0.27948V23.8774Z" fill="white"/>
</mask>
<g mask="url(#mask0_0_1)">
<path d="M276.219 24.5381H11.8467C5.59591 24.5381 0.502808 29.6501 0.502808 35.9889V190.239C40.9456 208.626 176.654 199.135 202.509 190.239C238.583 205.059 264.46 200.315 287.563 190.239V35.9889C287.563 29.6501 282.47 24.5381 276.219 24.5381Z" fill="#E15C63"/>
</g>
<mask id="mask1_0_1" style="mask-type:luminance" maskUnits="userSpaceOnUse" x="0" y="181" width="288" height="45">
<path d="M0.27948 181.723H287.752V225.211H0.27948V181.723Z" fill="white"/>
</mask>
<g mask="url(#mask1_0_1)">
<path d="M287.563 190.238V209.117C287.563 215.455 282.47 220.567 276.219 220.567H176.443C154.907 226.642 133.301 226.642 111.623 220.567H11.8467C5.59591 220.567 0.502808 215.455 0.502808 209.117V190.238H28.2837C64.6684 179.458 99.6878 178.432 132.92 190.238C142.317 184.353 152.934 185.35 164.243 190.238C175.628 185.089 188.727 186.378 202.509 190.238H287.563Z" fill="#E4E4E4"/>
</g>
<mask id="mask2_0_1" style="mask-type:luminance" maskUnits="userSpaceOnUse" x="150" y="0" width="87" height="106">
<path d="M150.04 0.956787H236.211V105.216H150.04V0.956787Z" fill="white"/>
</mask>
<g mask="url(#mask2_0_1)">
<path d="M157.389 89.8424C148.615 65.3678 148.502 41.4941 156.697 24.56C159.311 19.0768 162.806 14.3361 167.182 10.5422C169.311 8.69245 178.038 1.45074 190.332 1.19593C206.652 0.84989 219.849 13.018 227.072 24.538C228.044 26.133 228.922 27.6838 229.686 29.2096C241.886 53.7313 234.502 89.5655 215.797 96.8733C214.432 97.405 213.042 97.7762 211.654 98.0089C208.043 98.5846 204.431 98.2166 201.05 97.3829C200.587 97.2917 200.147 97.1501 199.706 97.0369C197.948 96.5273 196.073 97.3609 195.286 99.0251C194.544 100.598 193.827 102.171 193.088 103.744C177.692 106.647 164.791 104.172 157.389 89.8424Z" fill="#655F68"/>
</g>
<mask id="mask3_0_1" style="mask-type:luminance" maskUnits="userSpaceOnUse" x="85" y="236" width="118" height="29">
<path d="M85.6133 236.485H202.387V264.905H85.6133V236.485Z" fill="white"/>
</mask>
<g mask="url(#mask3_0_1)">
<path d="M201.909 264.911H86.1576C86.1576 259.755 88.2401 255.08 91.5747 251.705C94.9313 248.326 99.562 246.244 104.677 246.244H111.623L144.296 236.567L176.443 246.244H183.386C193.619 246.244 201.909 254.596 201.909 264.911Z" fill="#655F68"/>
</g>
<path d="M132.92 190.238H28.2837C27.3336 181.402 25.1819 151.538 44.4879 124.887C67.6129 92.963 104.561 89.0307 118.566 87.5522C132.92 86.0233 146.023 87.2754 157.389 89.8424C159.22 90.2576 160.978 90.698 162.715 91.1605C166.093 92.0853 169.311 93.1046 172.322 94.1899C175.446 95.3004 178.365 96.5052 181.074 97.6849C185.77 99.7643 189.8 101.872 193.088 103.744C195.818 105.295 198.042 106.682 199.706 107.792L224.385 137.797C233.194 138.096 238.529 142.416 240.476 150.658C246.007 155.748 248.322 159.309 247.372 161.278C246.331 163.427 241.471 163.707 232.744 162.108C229.803 161.577 226.978 163.496 226.33 166.434C225.081 172.125 223.297 175.201 220.96 175.689C217.858 176.337 213.784 172.288 208.76 163.543C207.115 164.606 205.01 165.833 202.509 166.966C193.229 173.802 184.028 177.687 175.147 169.721H175.122L132.92 190.238Z" fill="#41B0FF"/>
<path d="M111.623 220.567H176.443V246.244H111.623V220.567Z" fill="#CDC7B9"/>
<path d="M144.031 199.563C147.228 199.563 149.82 202.177 149.82 205.392C149.82 208.629 147.228 211.243 144.031 211.243C140.838 211.243 138.246 208.629 138.246 205.392C138.246 202.177 140.838 199.563 144.031 199.563Z" fill="#6FCEAE"/>
<path d="M241.609 122.946C246.17 125.698 249.225 130.14 249.665 134.834C250.222 140.827 246.516 147.071 240.476 150.657C238.624 148.924 236.425 147.049 233.854 145.014L234.015 144.806L241.609 122.946Z" fill="#D6EAE8"/>
<path d="M228.182 120.215C233.254 119.52 237.928 120.678 241.609 122.946C241.772 125.466 241.725 129.791 239.989 134.765C238.274 139.625 235.682 142.956 234.015 144.806L233.854 145.014C231.099 142.793 227.95 140.386 224.385 137.797L228.182 120.215Z" fill="#5D5560"/>
<path d="M194.777 115.566V115.544L197.347 110.083C197.857 109.019 198.712 108.233 199.706 107.792H199.732C200.911 107.261 202.302 107.239 203.503 107.814C205.844 108.95 206.838 111.98 205.495 114.386C206.376 112.511 208.156 111.401 209.962 111.401C210.588 111.401 211.214 111.539 211.793 111.819C213.391 112.606 214.316 114.27 214.316 116.05C214.316 116.837 214.13 117.623 213.784 118.388C214.872 116.075 217.603 115.103 219.893 116.214C221.539 117 222.511 118.664 222.511 120.401C222.511 121.049 222.372 121.719 222.07 122.367C223.159 120.077 225.889 119.105 228.183 120.215C229.825 121.002 230.797 122.666 230.797 124.402C230.797 125.05 230.658 125.721 230.359 126.369L225.751 136.108C225.427 136.8 224.964 137.379 224.385 137.797C223.067 138.813 221.237 139.068 219.638 138.282C217.996 137.473 217.024 135.831 217.024 134.095C217.024 133.425 217.163 132.755 217.465 132.107C216.376 134.419 213.646 135.391 211.352 134.28C209.823 133.563 208.899 132.081 208.76 130.508L208.735 130.486C196.045 133.459 190.171 129.694 194.777 115.566Z" fill="#FEC4B9"/>
<path d="M160.236 141.22C161.673 136.523 164.357 129.678 169.497 122.553C170.192 121.581 170.909 120.631 171.649 119.753C174.681 115.981 177.808 113.021 180.539 110.778C182.206 109.391 184.521 109.111 186.466 110.105C188.41 111.102 189.476 113.068 189.476 115.056C189.476 116.283 189.083 117.532 188.224 118.573C186.953 120.099 185.701 121.628 184.452 123.132L184.474 123.154C186.742 120.587 189.014 118.479 191.096 116.793C192.138 115.912 193.459 115.497 194.777 115.566C195.541 115.566 196.306 115.751 197.023 116.12C198.967 117.117 200.03 119.083 200.03 121.071C200.03 122.298 199.637 123.547 198.782 124.588C198.181 125.305 197.577 126.045 196.998 126.762C198.111 125.721 199.175 124.774 200.194 123.918C201.654 122.713 203.642 122.182 205.448 122.782C208.829 123.871 210.173 127.596 208.735 130.487C208.575 130.88 208.32 131.251 208.043 131.597C204.985 135.275 201.767 138.792 198.366 142.076C196.444 144.02 194.475 145.848 192.462 147.606L181.074 157.553C170.954 155.899 163.734 150.783 160.236 141.22Z" fill="#FFD7D2"/>
<path d="M170.007 179.643C180.696 174.597 191.537 174.729 202.509 179.643V190.238H164.243C162.34 185.539 164.778 182.166 170.007 179.643Z" fill="#D6EAE8"/>
<path d="M175.122 169.721H175.147C179.29 170.621 186.884 171.662 195.796 169.328C198.297 168.68 200.54 167.846 202.509 166.966V179.643H170.007C168.302 175.255 170.01 171.949 175.122 169.721Z" fill="#5D5560"/>
<path d="M181.074 157.553C179.196 161.555 177.207 165.603 175.122 169.721C174.823 170.344 174.521 170.97 174.197 171.593C161.664 171.275 152.94 165.55 148.2 154.175C152.321 149.292 156.395 144.992 160.236 141.22C163.341 142.585 167.251 144.668 171.325 147.814C175.726 151.189 178.897 154.728 181.074 157.553Z" fill="#655F68"/>
<path d="M174.197 171.593C173.41 173.122 172.624 174.67 171.812 176.221C171.211 177.378 170.607 178.511 170.007 179.643C169.242 181.078 168.503 182.465 167.738 183.855C155.224 182.827 145.988 176.328 139.634 165.025C140.304 164.1 140.999 163.175 141.716 162.225C143.871 159.381 146.023 156.698 148.2 154.175L174.197 171.593Z" fill="#E7F2F1"/>
<path d="M139.634 165.025L167.738 183.856C166.581 186.029 165.423 188.156 164.243 190.239H132.92C130.769 183.714 131.716 176.475 135.676 170.646C136.925 168.793 138.246 166.922 139.634 165.025Z" fill="#655F68"/>
<path d="M111.623 220.567H176.443V227.646H111.623V220.567Z" fill="#BCB7AC"/>
<path d="M232.039 162.099C240.766 163.697 245.629 163.417 246.671 161.269C247.617 159.302 245.305 155.738 239.772 150.648C245.812 147.062 249.518 140.817 248.961 134.825C248.545 130.499 245.928 126.381 241.949 123.607C262.412 98.6004 275.515 66.2832 275.515 24.5286C281.765 24.5286 286.859 29.6405 286.859 35.9794V190.229H201.805V166.959C204.306 165.824 206.413 164.597 208.055 163.534C213.079 172.279 217.153 176.328 220.255 175.68C222.592 175.192 224.376 172.115 225.625 166.425C226.276 163.489 229.098 161.567 232.039 162.099Z" fill="#D14B62"/>
<path d="M182.301 170.69C179.381 170.53 176.927 170.114 175.147 169.721H175.122C174.823 170.344 174.521 170.97 174.197 171.593C173.502 172.911 172.832 174.276 172.114 175.62C172.02 175.827 171.929 176.013 171.812 176.22C171.211 177.378 170.607 178.511 170.007 179.643H179.476C181.398 176.752 183.433 173.628 185.17 170.759C184.175 170.759 183.203 170.737 182.301 170.69Z" fill="#524956"/>
<path d="M167.738 183.856C168.503 182.465 169.242 181.078 170.007 179.643H179.476C175.631 185.403 172.184 190.238 172.184 190.238H164.243C165.423 188.156 166.581 186.029 167.738 183.856Z" fill="#C3DDDA"/>
<mask id="mask4_0_1" style="mask-type:luminance" maskUnits="userSpaceOnUse" x="0" y="189" width="288" height="33">
<path d="M0.27948 189.776H287.752V221.184H0.27948V189.776Z" fill="white"/>
</mask>
<g mask="url(#mask4_0_1)">
<path d="M144.031 211.243C147.228 211.243 149.82 208.629 149.82 205.392C149.82 202.177 147.228 199.563 144.031 199.563C140.838 199.563 138.246 202.177 138.246 205.392C138.246 208.629 140.838 211.243 144.031 211.243ZM287.563 190.238V209.116C287.563 215.455 282.47 220.567 276.219 220.567H11.8467C5.59591 220.567 0.502808 215.455 0.502808 209.116C0.502808 209.116 66.1312 210.781 133.361 190.238H287.563Z" fill="#D1D1D1"/>
</g>
<path d="M201.396 148.924C200.977 148.009 200.562 147.078 200.137 146.115C200.103 146.043 200.071 145.97 200.04 145.901C199.496 144.671 198.948 143.406 198.385 142.101L198.363 142.079C196.441 144.023 194.475 145.848 192.458 147.606L181.07 157.553C179.196 161.555 177.204 165.603 175.122 169.721H175.144C176.927 170.115 179.381 170.533 182.297 170.693C183.2 170.741 184.172 170.763 185.166 170.763C185.654 169.976 186.116 169.19 186.532 168.45C187.645 166.553 188.548 164.864 189.102 163.546C190.451 160.4 192.94 157.399 195.371 154.967C197.413 159.46 200.348 164.666 203.595 166.459C205.633 165.49 207.344 164.449 208.757 163.546C206.492 159.623 204.041 154.744 201.396 148.924Z" fill="#E0AC69"/>
<path d="M195.994 127.92C195.007 127.117 193.547 127.259 192.738 128.253C191.864 129.323 191.584 129.656 191.291 130.005C191.005 130.348 190.706 130.71 189.835 131.776C189.023 132.764 189.171 134.224 190.162 135.029C190.593 135.378 191.112 135.551 191.625 135.551C192.298 135.551 192.962 135.262 193.421 134.702L194.852 132.969C195.148 132.613 195.431 132.273 196.325 131.175C197.133 130.185 196.988 128.728 195.994 127.92Z" fill="#FEC4B9"/>
<path d="M181.074 123.607L180.533 124.185C180.133 124.607 180.13 124.607 179.712 125.167L179.23 125.799C178.453 126.815 178.651 128.269 179.667 129.04C180.086 129.36 180.58 129.515 181.067 129.515C181.766 129.515 182.458 129.2 182.911 128.602L183.408 127.948C183.66 127.614 183.656 127.614 183.895 127.36L184.468 126.749C185.336 125.815 185.283 124.349 184.342 123.481C183.411 122.616 181.945 122.666 181.074 123.607Z" fill="#FEC4B9"/>
<path d="M175.971 106.103C172.419 104.713 168.714 103.734 164.945 103.19C158.034 102.186 151.088 102.636 144.293 104.524C143.059 104.867 142.339 106.141 142.682 107.371C143.025 108.601 144.299 109.328 145.532 108.978C151.704 107.264 158.012 106.855 164.281 107.77C167.701 108.261 171.064 109.151 174.282 110.413C174.559 110.52 174.845 110.57 175.125 110.57C176.05 110.57 176.924 110.013 177.283 109.101C177.749 107.912 177.163 106.569 175.971 106.103Z" fill="#E0AC69"/>
<path d="M166.046 116.686C163.514 116.516 160.94 116.544 158.405 116.78C152.805 117.299 147.184 118.844 142.153 121.253C140.999 121.807 140.514 123.188 141.065 124.339C141.461 125.17 142.292 125.654 143.154 125.654C143.487 125.654 143.827 125.582 144.154 125.428C147.319 123.908 152.437 121.977 158.826 121.389C161.12 121.178 163.441 121.146 165.731 121.304C167.031 121.426 168.11 120.426 168.195 119.152C168.286 117.875 167.32 116.771 166.046 116.686Z" fill="#E0AC69"/>
<path d="M219.937 51.8721C219.148 41.1543 216.886 30.5528 213.205 20.3729C212.771 19.1712 211.447 18.5483 210.242 18.9824C209.04 19.4165 208.417 20.7441 208.851 21.9458C212.387 31.7293 214.564 41.9124 215.319 52.2119C216.269 65.2104 214.954 78.2531 211.409 90.9717C211.066 92.2048 211.786 93.4789 213.02 93.8218C213.224 93.8784 213.435 93.9067 213.642 93.9067C214.655 93.9067 215.587 93.2367 215.87 92.2111C219.557 78.9798 220.925 65.4055 219.937 51.8721Z" fill="#5D5560"/>
<path d="M201.544 20.5491C201.157 19.3285 199.848 18.6553 198.637 19.0485C197.419 19.4323 196.746 20.7378 197.133 21.9521C200.216 31.6161 202.192 41.5664 203.003 51.5324C204.092 65.0375 203.098 78.6117 200.043 91.8777C199.757 93.1203 200.534 94.3629 201.78 94.6523C201.956 94.6901 202.129 94.709 202.302 94.709C203.356 94.709 204.309 93.9854 204.554 92.9127C207.716 79.1811 208.744 65.135 207.618 51.158C206.778 40.846 204.733 30.5465 201.544 20.5491Z" fill="#5D5560"/>
<path d="M187.397 14.5813C186.129 14.7323 185.22 15.8837 185.371 17.1515C186.997 30.7918 187.227 44.6052 186.057 58.2078C185.119 69.1867 183.26 80.1751 180.529 90.8678C180.215 92.1041 180.964 93.3656 182.203 93.6802C182.395 93.7274 182.587 93.7525 182.776 93.7525C183.807 93.7525 184.751 93.0542 185.015 92.0097C187.812 81.0717 189.712 69.8316 190.672 58.6041C191.87 44.687 191.634 30.559 189.97 16.6073C189.819 15.3363 188.655 14.4398 187.397 14.5813Z" fill="#5D5560"/>
<path d="M179.592 18.1803C178.337 17.9161 177.11 18.7057 176.843 19.9546C174.754 29.6249 173.121 39.3738 171.992 48.9277C170.516 61.4922 169.805 74.2674 169.878 86.9011C169.884 88.1751 170.919 89.2007 172.193 89.2007C172.196 89.2007 172.202 89.2007 172.206 89.2007C173.483 89.1944 174.515 88.15 174.508 86.8727C174.436 74.431 175.134 61.8445 176.588 49.4688C177.701 40.0596 179.312 30.4554 181.366 20.9298C181.637 19.6809 180.844 18.4509 179.592 18.1803Z" fill="#5D5560"/>
<path d="M167.776 24.1478C166.571 23.7074 165.244 24.3208 164.803 25.5194C161.626 34.1358 159.465 43.1297 158.38 52.2558C157.09 63.1404 157.364 74.22 159.194 85.1927C159.386 86.3252 160.365 87.1242 161.475 87.1242C161.601 87.1242 161.73 87.1179 161.859 87.0928C163.12 86.882 163.973 85.6929 163.762 84.4314C162.007 73.8897 161.739 63.2473 162.979 52.8C164.023 44.0357 166.096 35.3941 169.151 27.1174C169.588 25.9189 168.975 24.5882 167.776 24.1478Z" fill="#5D5560"/>
</svg>
